<svg width="67" height="67" viewBox="0 0 67 67" fill="none" xmlns="http://www.w3.org/2000/svg">
<g clip-path="url(#clip0_50_74)">
<path d="M16.2048 33.1239L33.6887 2.84094L51.1726 33.1239H16.2048Z" stroke="white" stroke-width="1.5"/>
<path d="M51.1726 34.2831L33.6887 64.566L16.2048 34.2831L51.1726 34.2831Z" stroke="white" stroke-width="1.5"/>
<path d="M43.7148 33.6352C43.7148 39.1537 39.2412 43.6272 33.7228 43.6272C28.2044 43.6272 23.7308 39.1537 23.7308 33.6352C23.7308 28.1168 28.2044 23.6432 33.7228 23.6432C39.2412 23.6432 43.7148 28.1168 43.7148 33.6352Z" stroke="white" stroke-width="1.5"/>
<path d="M43.7148 22.9956C43.7148 28.514 39.2412 32.9876 33.7228 32.9876C28.2044 32.9876 23.7308 28.514 23.7308 22.9956C23.7308 17.4771 28.2044 13.0035 33.7228 13.0035C39.2412 13.0035 43.7148 17.4771 43.7148 22.9956Z" stroke="white" stroke-width="1.5"/>
<path d="M43.7148 44.4796C43.7148 49.998 39.2412 54.4716 33.7228 54.4716C28.2044 54.4716 23.7308 49.998 23.7308 44.4796C23.7308 38.9611 28.2044 34.4875 33.7228 34.4875C39.2412 34.4875 43.7148 38.9611 43.7148 44.4796Z" stroke="white" stroke-width="1.5"/>
<circle cx="33.6887" cy="22.6887" r="20.9387" stroke="white" stroke-width="1.5"/>
<circle cx="33.6887" cy="44.7183" r="20.9387" stroke="white" stroke-width="1.5"/>
<circle cx="33.5" cy="33.5" r="32.5" stroke="white" stroke-width="2"/>
</g>
<defs>
<clipPath id="clip0_50_74">
<rect width="67" height="67" fill="white"/>
</clipPath>
</defs>
</svg>
